<mxfile host="app.diagrams.net" modified="2021-08-22T15:29:14.961Z" agent="5.0 (Windows NT 10.0; Win64; x64) AppleWebKit/537.36 (KHTML, like Gecko) Chrome/92.0.4515.131 Safari/537.36 OPR/78.0.4093.153" etag="KHileUq21AD4FpxBmkez" version="14.9.6" type="github">
  <diagram id="qUx_Mnt7NG1dFU9bOM9h" name="Page-1">
    <mxGraphModel dx="1888" dy="548" grid="1" gridSize="10" guides="1" tooltips="1" connect="1" arrows="1" fold="1" page="1" pageScale="1" pageWidth="850" pageHeight="1100" math="0" shadow="0">
      <root>
        <mxCell id="0" />
        <mxCell id="1" parent="0" />
        <mxCell id="XRRtlaPGDXEW5qFDeIoK-1" style="edgeStyle=orthogonalEdgeStyle;rounded=0;orthogonalLoop=1;jettySize=auto;html=1;endArrow=none;endFill=0;dashed=1;" edge="1" parent="1" source="XRRtlaPGDXEW5qFDeIoK-35">
          <mxGeometry relative="1" as="geometry">
            <mxPoint x="80" y="580" as="targetPoint" />
            <mxPoint x="79.5" y="-120.5" as="sourcePoint" />
            <Array as="points" />
          </mxGeometry>
        </mxCell>
        <mxCell id="XRRtlaPGDXEW5qFDeIoK-2" value="" style="shape=umlActor;verticalLabelPosition=bottom;verticalAlign=top;html=1;outlineConnect=0;" vertex="1" parent="1">
          <mxGeometry x="70" y="70" width="20" height="40" as="geometry" />
        </mxCell>
        <mxCell id="XRRtlaPGDXEW5qFDeIoK-3" style="edgeStyle=orthogonalEdgeStyle;rounded=0;orthogonalLoop=1;jettySize=auto;html=1;endArrow=none;endFill=0;dashed=1;" edge="1" parent="1" source="XRRtlaPGDXEW5qFDeIoK-4">
          <mxGeometry relative="1" as="geometry">
            <mxPoint x="230" y="580" as="targetPoint" />
          </mxGeometry>
        </mxCell>
        <mxCell id="XRRtlaPGDXEW5qFDeIoK-4" value=": Login" style="rounded=0;whiteSpace=wrap;html=1;" vertex="1" parent="1">
          <mxGeometry x="180" y="70" width="100" height="40" as="geometry" />
        </mxCell>
        <mxCell id="XRRtlaPGDXEW5qFDeIoK-5" style="edgeStyle=orthogonalEdgeStyle;rounded=0;orthogonalLoop=1;jettySize=auto;html=1;endArrow=none;endFill=0;dashed=1;" edge="1" parent="1" source="XRRtlaPGDXEW5qFDeIoK-6">
          <mxGeometry relative="1" as="geometry">
            <mxPoint x="530" y="580" as="targetPoint" />
            <Array as="points">
              <mxPoint x="530" y="570" />
              <mxPoint x="530" y="570" />
            </Array>
          </mxGeometry>
        </mxCell>
        <mxCell id="XRRtlaPGDXEW5qFDeIoK-6" value=": Home page" style="rounded=0;whiteSpace=wrap;html=1;" vertex="1" parent="1">
          <mxGeometry x="480" y="70" width="100" height="40" as="geometry" />
        </mxCell>
        <mxCell id="XRRtlaPGDXEW5qFDeIoK-7" style="edgeStyle=orthogonalEdgeStyle;rounded=0;orthogonalLoop=1;jettySize=auto;html=1;endArrow=none;endFill=0;dashed=1;" edge="1" parent="1" source="XRRtlaPGDXEW5qFDeIoK-8">
          <mxGeometry relative="1" as="geometry">
            <mxPoint x="380" y="580" as="targetPoint" />
          </mxGeometry>
        </mxCell>
        <mxCell id="XRRtlaPGDXEW5qFDeIoK-8" value=": Authentication" style="rounded=0;whiteSpace=wrap;html=1;" vertex="1" parent="1">
          <mxGeometry x="330" y="70" width="100" height="40" as="geometry" />
        </mxCell>
        <mxCell id="XRRtlaPGDXEW5qFDeIoK-9" value="" style="endArrow=classic;html=1;" edge="1" parent="1">
          <mxGeometry width="50" height="50" relative="1" as="geometry">
            <mxPoint x="80" y="160" as="sourcePoint" />
            <mxPoint x="223" y="160" as="targetPoint" />
          </mxGeometry>
        </mxCell>
        <mxCell id="XRRtlaPGDXEW5qFDeIoK-10" value="" style="endArrow=classic;html=1;entryX=0.02;entryY=0.497;entryDx=0;entryDy=0;entryPerimeter=0;" edge="1" parent="1" target="XRRtlaPGDXEW5qFDeIoK-23">
          <mxGeometry width="50" height="50" relative="1" as="geometry">
            <mxPoint x="80" y="210" as="sourcePoint" />
            <mxPoint x="230" y="210" as="targetPoint" />
          </mxGeometry>
        </mxCell>
        <mxCell id="XRRtlaPGDXEW5qFDeIoK-11" value="" style="endArrow=none;html=1;startArrow=classic;startFill=1;endFill=0;dashed=1;" edge="1" parent="1">
          <mxGeometry width="50" height="50" relative="1" as="geometry">
            <mxPoint x="236" y="260" as="sourcePoint" />
            <mxPoint x="380" y="260" as="targetPoint" />
          </mxGeometry>
        </mxCell>
        <mxCell id="XRRtlaPGDXEW5qFDeIoK-12" value="" style="endArrow=classic;html=1;entryX=-0.26;entryY=0.25;entryDx=0;entryDy=0;entryPerimeter=0;" edge="1" parent="1" target="XRRtlaPGDXEW5qFDeIoK-24">
          <mxGeometry width="50" height="50" relative="1" as="geometry">
            <mxPoint x="230" y="220" as="sourcePoint" />
            <mxPoint x="380" y="220" as="targetPoint" />
          </mxGeometry>
        </mxCell>
        <mxCell id="XRRtlaPGDXEW5qFDeIoK-13" value="clicks on login&amp;nbsp;" style="text;html=1;align=center;verticalAlign=middle;resizable=0;points=[];autosize=1;strokeColor=none;" vertex="1" parent="1">
          <mxGeometry x="115" y="130" width="90" height="20" as="geometry" />
        </mxCell>
        <mxCell id="XRRtlaPGDXEW5qFDeIoK-14" value="enter username,&lt;br&gt;email, password" style="text;html=1;align=center;verticalAlign=middle;resizable=0;points=[];autosize=1;strokeColor=none;" vertex="1" parent="1">
          <mxGeometry x="110" y="170" width="100" height="30" as="geometry" />
        </mxCell>
        <mxCell id="XRRtlaPGDXEW5qFDeIoK-15" value="ValidateInput()" style="text;html=1;align=center;verticalAlign=middle;resizable=0;points=[];autosize=1;strokeColor=none;" vertex="1" parent="1">
          <mxGeometry x="265" y="190" width="90" height="20" as="geometry" />
        </mxCell>
        <mxCell id="XRRtlaPGDXEW5qFDeIoK-16" value="VerificationResult" style="text;html=1;align=center;verticalAlign=middle;resizable=0;points=[];autosize=1;strokeColor=none;" vertex="1" parent="1">
          <mxGeometry x="255" y="230" width="110" height="20" as="geometry" />
        </mxCell>
        <mxCell id="XRRtlaPGDXEW5qFDeIoK-17" value="" style="endArrow=classic;html=1;entryX=0.14;entryY=0.49;entryDx=0;entryDy=0;entryPerimeter=0;" edge="1" parent="1" target="XRRtlaPGDXEW5qFDeIoK-25">
          <mxGeometry width="50" height="50" relative="1" as="geometry">
            <mxPoint x="230" y="330" as="sourcePoint" />
            <mxPoint x="380" y="330" as="targetPoint" />
          </mxGeometry>
        </mxCell>
        <mxCell id="XRRtlaPGDXEW5qFDeIoK-18" value="[Valid input]" style="text;html=1;align=center;verticalAlign=middle;resizable=0;points=[];autosize=1;strokeColor=none;" vertex="1" parent="1">
          <mxGeometry x="80" y="290" width="80" height="20" as="geometry" />
        </mxCell>
        <mxCell id="XRRtlaPGDXEW5qFDeIoK-19" value="AddNewUser()" style="text;html=1;align=center;verticalAlign=middle;resizable=0;points=[];autosize=1;strokeColor=none;" vertex="1" parent="1">
          <mxGeometry x="265" y="310" width="90" height="20" as="geometry" />
        </mxCell>
        <mxCell id="XRRtlaPGDXEW5qFDeIoK-20" value="" style="endArrow=classic;html=1;" edge="1" parent="1">
          <mxGeometry width="50" height="50" relative="1" as="geometry">
            <mxPoint x="231.5" y="390" as="sourcePoint" />
            <mxPoint x="528.5" y="390" as="targetPoint" />
          </mxGeometry>
        </mxCell>
        <mxCell id="XRRtlaPGDXEW5qFDeIoK-21" value="Redirection" style="text;html=1;align=center;verticalAlign=middle;resizable=0;points=[];autosize=1;fillColor=#ffffff;" vertex="1" parent="1">
          <mxGeometry x="340" y="360" width="80" height="20" as="geometry" />
        </mxCell>
        <mxCell id="XRRtlaPGDXEW5qFDeIoK-22" value="" style="html=1;points=[];perimeter=orthogonalPerimeter;fillColor=#ffffff;" vertex="1" parent="1">
          <mxGeometry x="75" y="150" width="10" height="80" as="geometry" />
        </mxCell>
        <mxCell id="XRRtlaPGDXEW5qFDeIoK-23" value="" style="html=1;points=[];perimeter=orthogonalPerimeter;fillColor=#ffffff;" vertex="1" parent="1">
          <mxGeometry x="225" y="150" width="10" height="120" as="geometry" />
        </mxCell>
        <mxCell id="XRRtlaPGDXEW5qFDeIoK-24" value="" style="html=1;points=[];perimeter=orthogonalPerimeter;fillColor=#ffffff;" vertex="1" parent="1">
          <mxGeometry x="375" y="200" width="10" height="80" as="geometry" />
        </mxCell>
        <mxCell id="XRRtlaPGDXEW5qFDeIoK-25" value="" style="html=1;points=[];perimeter=orthogonalPerimeter;fillColor=#ffffff;" vertex="1" parent="1">
          <mxGeometry x="375" y="310" width="10" height="40" as="geometry" />
        </mxCell>
        <mxCell id="XRRtlaPGDXEW5qFDeIoK-26" value="" style="html=1;points=[];perimeter=orthogonalPerimeter;fillColor=#ffffff;" vertex="1" parent="1">
          <mxGeometry x="225" y="320" width="10" height="80" as="geometry" />
        </mxCell>
        <mxCell id="XRRtlaPGDXEW5qFDeIoK-27" value="" style="html=1;points=[];perimeter=orthogonalPerimeter;fillColor=#ffffff;" vertex="1" parent="1">
          <mxGeometry x="525" y="360" width="10" height="40" as="geometry" />
        </mxCell>
        <mxCell id="XRRtlaPGDXEW5qFDeIoK-28" value="[Invalid input]" style="text;html=1;align=center;verticalAlign=middle;resizable=0;points=[];autosize=1;strokeColor=none;" vertex="1" parent="1">
          <mxGeometry x="80" y="420" width="90" height="20" as="geometry" />
        </mxCell>
        <mxCell id="XRRtlaPGDXEW5qFDeIoK-29" value="" style="html=1;points=[];perimeter=orthogonalPerimeter;fillColor=#ffffff;" vertex="1" parent="1">
          <mxGeometry x="75" y="450" width="10" height="50" as="geometry" />
        </mxCell>
        <mxCell id="XRRtlaPGDXEW5qFDeIoK-30" style="edgeStyle=orthogonalEdgeStyle;rounded=0;orthogonalLoop=1;jettySize=auto;html=1;startArrow=none;startFill=0;endArrow=classic;endFill=1;entryX=1.02;entryY=0.48;entryDx=0;entryDy=0;entryPerimeter=0;dashed=1;" edge="1" parent="1" source="XRRtlaPGDXEW5qFDeIoK-31" target="XRRtlaPGDXEW5qFDeIoK-29">
          <mxGeometry relative="1" as="geometry">
            <mxPoint x="90" y="465" as="targetPoint" />
            <Array as="points">
              <mxPoint x="140" y="474" />
              <mxPoint x="140" y="474" />
            </Array>
          </mxGeometry>
        </mxCell>
        <mxCell id="XRRtlaPGDXEW5qFDeIoK-31" value="" style="html=1;points=[];perimeter=orthogonalPerimeter;fillColor=#ffffff;" vertex="1" parent="1">
          <mxGeometry x="225" y="450" width="10" height="50" as="geometry" />
        </mxCell>
        <mxCell id="XRRtlaPGDXEW5qFDeIoK-32" value="DisplayError()" style="text;html=1;align=center;verticalAlign=middle;resizable=0;points=[];autosize=1;strokeColor=none;" vertex="1" parent="1">
          <mxGeometry x="110" y="450" width="90" height="20" as="geometry" />
        </mxCell>
        <mxCell id="XRRtlaPGDXEW5qFDeIoK-33" value="" style="endArrow=open;endFill=1;endSize=12;html=1;" edge="1" parent="1">
          <mxGeometry width="160" relative="1" as="geometry">
            <mxPoint x="5" y="419.5" as="sourcePoint" />
            <mxPoint x="5" y="419.5" as="targetPoint" />
          </mxGeometry>
        </mxCell>
        <mxCell id="XRRtlaPGDXEW5qFDeIoK-34" value="" style="endArrow=none;endFill=0;endSize=12;html=1;dashed=1;entryX=1.003;entryY=0.533;entryDx=0;entryDy=0;entryPerimeter=0;" edge="1" parent="1" target="XRRtlaPGDXEW5qFDeIoK-36">
          <mxGeometry width="160" relative="1" as="geometry">
            <mxPoint y="410" as="sourcePoint" />
            <mxPoint x="600" y="410" as="targetPoint" />
          </mxGeometry>
        </mxCell>
        <mxCell id="XRRtlaPGDXEW5qFDeIoK-35" value="User" style="text;html=1;align=center;verticalAlign=middle;resizable=0;points=[];autosize=1;strokeColor=none;" vertex="1" parent="1">
          <mxGeometry x="60" y="110" width="40" height="20" as="geometry" />
        </mxCell>
        <mxCell id="XRRtlaPGDXEW5qFDeIoK-36" value="Alt" style="shape=umlFrame;whiteSpace=wrap;html=1;fillColor=#ffffff;" vertex="1" parent="1">
          <mxGeometry y="280" width="580" height="240" as="geometry" />
        </mxCell>
      </root>
    </mxGraphModel>
  </diagram>
</mxfile>
